<svg xmlns="http://www.w3.org/2000/svg"  viewBox="0 0 50 50" width="50px" height="50px" baseProfile="basic"><path fill="#ff64bd" d="M45.312,20.384l-2.828-2.828l2.89-2.89c0.746-0.746,0.746-1.96,0-2.706l-5.78-5.779 c-0.723-0.724-1.983-0.722-2.706,0l-2.89,2.89L31.17,6.242l2.89-2.89c1.117-1.117,2.602-1.732,4.181-1.732s3.064,0.615,4.181,1.732 l5.779,5.779c2.306,2.306,2.306,6.057,0,8.362L45.312,20.384z"/><polygon fill="#ffd217" points="6.138,45.416 8.79,28.622 12.785,24.627 15.613,27.455 12.538,30.53 10.947,40.607 21.023,39.017 24.099,35.94 26.928,38.769 22.932,42.765"/><polygon fill="#ffd217" points="23.392,42.304 9.25,28.162 31.17,6.242 33.998,9.07 14.907,28.162 23.392,36.647 42.484,17.556 45.312,20.384"/><rect width="4" height="23" x="23.867" y="14.187" fill="#ffd217" transform="rotate(45.001 25.867 25.687)"/><rect width="4" height="20" x="36.241" y="3.313" fill="#16d6fa" transform="rotate(134.999 38.241 13.313)"/><polygon fill="#af87ce" points="7.565,36.377 6.138,45.416 15.177,43.989"/><rect width="4" height="4" x="30.584" y="5.656" fill="#d8007c" transform="rotate(-45.001 32.584 7.657)"/><rect width="4" height="4" x="41.898" y="16.97" fill="#d8007c" transform="rotate(-45.001 43.898 18.97)"/></svg>